<svg width="512" height="512" viewBox="0 0 512 512" fill="none" xmlns="http://www.w3.org/2000/svg">
    <rect width="512" height="512" fill="white"/>
    <path d="M77.3245 194.761C76.2923 191.3 75.4373 189.077 75.1589 187.13C71.0012 170.577 71.002 154.312 72.9564 137.937C74.0438 128.017 75.5071 118.221 76.7697 108.275C77.0912 105.516 77.2374 102.784 76.8324 99.9522C76.4996 95.1219 72.7367 91.3422 67.4485 89.4153C61.7592 87.1863 55.873 87.336 51.7201 90.8433C49.3437 93.0029 46.792 95.1885 45.7187 97.697C42.8979 104.26 39.5766 111.078 38.0843 118.167C33.4319 139.459 34.1652 160.857 39.4582 182.844C42.1553 194.192 46.2295 205.154 54.0845 215.014C67.6344 230.897 87.4726 230.667 97.1422 214.414C100.791 208.632 102.784 201.288 105.078 194.804C105.928 193.232 106.452 191.889 107.075 189.989C111.491 194.576 114.753 198.61 119.067 202.489C135.093 215.656 154.728 214.01 165.853 199.168C170.053 193.485 172.698 186.948 173.916 180.442C179.739 154.819 177.847 129.075 167.038 103.568C163.643 94.854 159.098 86.853 150.847 80.4855C146.558 76.7839 141.747 75.6898 137.692 77.3754C132.961 79.3418 131.589 83.5212 133.576 88.6485C134.078 89.6584 134.731 90.4653 134.883 91.5271C137.874 98.6742 141.442 106.097 143.382 113.4C148.521 133.061 150.729 152.252 147.276 171.921C145.287 181.794 139.194 194.264 132.559 179.163C129.164 170.449 125.769 161.735 122.725 152.969C121.467 149.18 121.312 145.589 120.43 141.924C118.266 135.558 112.674 131.507 106.387 131.355C99.7232 131.078 95.471 135.142 93.9027 141.7C89.5428 157.527 84.6823 173.61 80.1724 189.64C79.7983 190.78 78.7231 192.024 77.3245 194.761Z" fill="#003049"/>
    <path d="M204.219 194.796C210.445 183.743 208.908 165.912 222.948 158.946C225.898 157.546 228.737 157.584 231.491 159.595C240.508 166.668 234.86 182.528 239.225 192.517C245.468 204.742 259.821 196.865 260.216 186.28C260.65 180.349 261.076 174.239 261.148 168.148C261.496 164.191 260.766 159.929 259.497 155.516C252.219 132.42 224.712 131.998 207.534 143.955C206.851 121.605 217.862 99.032 218.495 85.9285C219.125 76.5855 206.882 68.7785 197.435 71.5764C194.638 72.4319 191.873 74.002 190.01 75.8854C169.926 97.8359 168.715 151.975 176.679 182.199C177.747 186.086 180.27 190.795 183.098 194.415C189.117 201.815 200.777 200.877 204.219 194.796Z" fill="#003049"/>
    <path d="M274.478 166.798C275.704 167.535 276.75 168.447 277.979 169.005C284.814 172.879 291.686 174.785 299.144 173.839C314.585 172.313 327.203 160.9 329.424 146.625C330.634 138.953 328.645 131.763 323.282 125.052C313.765 113.26 297.929 107.623 284.225 110.967C257.362 116.949 241.46 142.619 247.69 168.846C251.119 184.111 262.938 195.942 278.467 199.069C293.823 202.015 306.822 198.48 317.958 190.44C319.573 189.394 320.663 187.982 321.756 186.39C324.491 182.322 323.861 178.197 320.374 175.275C317.067 172.177 312.824 171.746 308.877 174.363C299.007 180.993 275.747 183.816 274.478 166.798ZM292.529 149.216C278.021 148.253 283.485 131.171 299.218 132.871C303.107 133.295 304.497 134.75 304.428 138.327C304.499 143.874 298.373 149.316 292.529 149.216Z" fill="#003049"/>
    <path d="M366.82 122.54C365.978 121.938 365.652 121.554 365.326 121.171C360.534 111.839 348.729 110.587 343.606 117.197C341.826 119.574 340.195 122.321 338.917 125.095C332.16 141.449 329.356 159.536 330.573 178.466C330.476 182.046 331.44 185.707 332.607 189.025C335.878 197.345 345.263 202.36 352.369 200.027C356.363 198.894 358.714 196.022 359.558 191.959C360.102 187.156 360.308 182.148 360.894 176.81C362.692 160.262 372.725 135.903 378.998 144.451C380.776 149.07 381.889 153.101 383.735 156.829C385.867 161.475 389.873 164.828 395.103 166.12C400.889 167.096 404.612 164.866 406.352 160.691C408.514 155.652 408.054 150.056 406.724 144.214C401.296 126.94 381.928 115.429 369.035 121.451C368.111 121.92 367.214 122.031 366.82 122.54Z" fill="#003049"/>
    <path d="M418.283 175.41C419.422 176.276 420.364 177.297 421.526 177.986C427.903 182.585 434.529 185.232 442.043 185.106C457.552 185.277 471.316 175.307 475.054 161.355C477.078 153.858 475.873 146.491 471.261 139.231C463.066 126.466 447.932 119.129 433.953 120.957C406.614 123.97 388.058 147.757 391.44 174.518C393.211 190.072 403.691 203.128 418.789 207.935C433.735 212.543 447.033 210.448 458.963 203.671C460.679 202.808 461.914 201.522 463.171 200.059C466.325 196.312 466.141 192.141 462.989 188.855C460.034 185.413 455.863 184.521 451.66 186.691C441.14 192.205 417.72 192.47 418.283 175.41ZM438.107 159.899C423.792 157.355 431.052 140.966 446.507 144.376C450.327 145.223 451.552 146.822 451.1 150.371C450.577 155.895 443.904 160.637 438.107 159.899Z" fill="#003049"/>
    <path d="M128.751 324.563C131.053 328.595 132.516 331.653 134.636 334.266C137.93 339.072 143.257 341.631 148.396 341.329C153.183 341.072 156.378 338.134 157.039 333.539C157.078 332.452 157.094 331.187 156.935 329.945C156.627 324.753 156.342 319.739 155.507 314.616C151.631 287.156 150.107 259.934 153.575 234.051C154.445 226.904 154.986 219.979 154.801 212.968C155.082 206.799 150.621 201.241 144.569 198.595C138.646 195.571 131.729 195.923 127.441 200.084C124.904 202.577 122.809 205.733 121.263 208.999C117.691 215.954 116.256 224.257 115.919 232.779C115.667 240.568 115.591 248.334 115.209 256.501C113.606 256.528 112.201 256.709 110.575 256.558C101.13 256.695 93.4084 259.135 87.28 264.255C76.1618 273.627 70.7446 285.691 71.3796 300.401C71.5474 308.677 74.548 316.768 80.7327 324.628C92.9038 340.194 112.203 343.114 123.048 331.613C124.906 329.389 126.435 327.388 128.751 324.563ZM116.653 280.306C119.567 298.871 111.588 322.99 102.775 316.912C90.2758 301.569 99.3892 280.731 116.653 280.306Z" fill="#003049"/>
    <path d="M149.432 308.202C157.775 333.352 184.027 341.19 203.101 325.037C218.196 312.271 221.858 296.701 216.08 274.566C210.775 253.828 188.588 241.517 172.089 250.272C160.319 256.113 151.836 265.088 148.286 277.777C145.802 286.245 147.035 300.864 149.432 308.202ZM189.763 310.183C178.103 319.427 172.592 298.347 176.021 284.233C180.411 264.651 202.728 267.973 200.077 289.204C198.974 297.197 194.741 305.993 189.763 310.183Z" fill="#003049"/>
    <path d="M281.19 294.503C280.478 294.337 279.763 293.993 279.228 293.823C278.06 279.531 279.565 266.083 283.036 253.494C284.537 248.814 282.313 243.845 276.577 240.372C271.187 236.535 264.441 235.766 260.783 238.875C258.516 240.706 256.788 242.885 255.772 245.23C248.643 260.929 247.573 278.484 251.504 298.094C252.665 303.082 255.254 308.581 258.547 313.888C266.603 327.159 283.172 332.042 290.977 323.667C294.271 320.027 296.491 315.871 299.25 312.062C299.749 310.442 300.791 309.35 301.998 307.717C305.252 311.056 307.437 314.058 310.139 316.334C320.773 325.621 333.929 328.061 341.083 322.561C344.227 320.356 346.292 317.276 347.641 313.851C349.32 309.168 350.637 304.134 351.593 298.748C352.932 285.84 354.083 272.399 355.065 259.319C355.21 257.706 355.174 255.918 354.608 254.139C354.027 251.644 351.683 249.541 348.464 247.99C344.898 246.803 342.242 246.852 340.861 248.667C339.827 250.118 339.154 251.919 338.658 253.718C336.048 265.039 333.969 276.35 331.175 287.316C330.204 291.986 328.349 296.673 326.486 301.002C326.33 302.078 325.098 302.459 323.887 303.913C322.403 300.54 320.944 298.42 320.547 296.28C319.4 292.007 318.426 287.552 317.814 283.448C316.776 275.773 312.601 270.661 305.643 268.106C298.865 265.726 294.998 267.229 292.104 273.187C288.708 280.586 284.77 287.458 281.19 294.503Z" fill="#003049"/>
    <path d="M374.31 295.117C375.532 295.867 376.572 296.79 377.797 297.36C384.608 301.304 391.467 303.281 398.93 302.411C414.377 301.043 427.062 289.758 429.369 275.505C430.624 267.844 428.679 260.633 423.357 253.866C413.912 241.976 398.113 236.176 384.391 239.381C357.496 245.088 341.442 270.598 347.514 296.891C350.851 312.193 362.598 324.146 378.105 327.432C393.441 330.536 406.459 327.133 417.642 319.207C419.262 318.177 420.36 316.776 421.463 315.195C424.222 311.155 423.617 307.022 420.148 304.064C416.861 300.932 412.621 300.459 408.658 303.035C398.75 309.564 375.477 312.15 374.31 295.117ZM392.463 277.718C377.964 276.606 383.529 259.579 399.25 261.44C403.136 261.904 404.516 263.373 404.427 266.95C404.464 272.498 398.306 277.878 392.463 277.718Z" fill="#003049"/>
    <path d="M160.549 393.869C161.786 394.594 162.844 395.497 164.081 396.043C170.971 399.851 177.87 401.692 185.315 400.675C200.734 399.004 213.189 387.472 215.207 373.178C216.307 365.495 214.216 358.325 208.757 351.665C199.072 339.965 183.156 334.479 169.5 337.952C142.723 344.188 127.187 370.006 133.791 396.17C137.437 411.402 149.425 423.119 164.998 426.099C180.395 428.899 193.344 425.241 204.366 417.097C205.965 416.036 207.035 414.613 208.105 413.011C210.782 408.918 210.093 404.799 206.565 401.91C203.214 398.844 198.965 398.454 195.055 401.107C185.28 407.83 162.061 410.873 160.549 393.869ZM178.349 376.118C163.828 375.292 169.048 358.161 184.805 359.711C188.7 360.098 190.11 361.54 190.093 365.117C190.243 370.663 184.194 376.162 178.349 376.118Z" fill="#003049"/>
    <path d="M271.09 407.288C272.462 411.662 273.312 415.828 275.075 419.507C277.472 424.654 281.765 427.398 286.188 427.641C290.787 427.893 293.047 425.331 293.853 420.002C294.054 416.073 294.442 411.975 294.988 408.244C297.362 396.553 299.754 384.506 302.128 372.815C302.573 371.049 302.833 369.451 302.747 367.655C302.583 360.482 295.093 354.339 288.448 355.944C287.191 356.233 285.916 356.88 284.306 357.149C281.034 351.775 276.59 348.486 271.561 346.24C264.959 343.549 258.423 343.01 252.829 344.852C236.756 350.417 225.034 361.056 218.381 376.631C215.761 382.755 215.581 389.73 218.026 397.387C221.014 408.297 229.846 415.947 240.413 417.423C246.94 418.14 252.841 417.211 258.118 414.635C262.492 412.368 266.521 409.903 271.09 407.288ZM276.171 370.493C275.609 377.985 263.35 392.177 253.505 397.367C242.571 403.034 242.751 396.059 247.037 388.593C254.632 375.399 271.929 363.275 276.171 370.493Z" fill="#003049"/>
    <path d="M338.851 360.608C340.844 353.451 343.078 347.4 344.82 340.935C346.322 336.782 347.156 332.197 347.833 327.414C348.314 322.791 346.33 317.898 341.221 313.925C336.604 310.365 330.791 309.732 327.286 312.588C323.8 315.266 320.982 318.376 319.481 322.529C314.957 331.749 308.385 348.659 304.77 359.416C301.07 359.013 297.51 358.985 294.108 359.154C289.083 359.507 287.034 363.78 288.527 368.259C290.743 372.637 295.064 375.625 300.172 376.181L301.053 376.277C300.479 381.79 300.192 386.255 299.905 390.72C299.349 399.472 300.36 408.575 304.329 418.359C309.012 429.84 319.313 438.695 330.513 440.633C337.856 441.972 343.279 439.505 347.794 435.5C352.93 430.664 356.434 424.391 358.798 417.095C359.493 415.552 359.465 414.11 359.632 412.509C359.493 408.717 357.397 404.892 353.725 402.514C350.193 400.511 347.022 400.166 344.528 401.872C343.536 402.844 342.665 404.367 342.025 405.377C333.552 414.886 328.11 420.948 330.084 403.717C331.094 395.734 332.845 387.472 333.698 379.291C333.79 378.402 335.839 377.546 337.072 377.68C341.903 377.487 346.501 377.807 351.471 377.989C356.264 378.151 358.406 376.406 357.738 372.556C357.246 368.726 354.27 364.805 349.096 363.162C345.823 362.087 342.866 361.405 338.851 360.608Z" fill="#003049"/>
    </svg>
    