<svg width="126" height="126" viewBox="0 0 126 126" fill="none" xmlns="http://www.w3.org/2000/svg">
<g clip-path="url(#clip0_2559_717)">
<path d="M62.9979 0.00148492L-0.00170898 63.0011L62.9979 126.001L125.998 63.0011L62.9979 0.00148492Z" fill="white"/>
<path d="M28.8016 80.7328V81.6392H30.8055V82.4736H28.8016V84.0997H27.8772V79.8984H31.0754V80.7328H28.8016V80.7328Z" fill="#00ADAB"/>
<path d="M36.2257 82.8425C36.1133 83.1056 35.9581 83.335 35.7602 83.533C35.5622 83.7309 35.3261 83.8861 35.0517 84.0008C34.7773 84.1155 34.4782 84.1717 34.1543 84.1717C33.8305 84.1717 33.5313 84.1155 33.2592 84.0008C32.987 83.8861 32.7509 83.7331 32.553 83.5397C32.3551 83.3463 32.1999 83.1169 32.0919 82.856C31.9817 82.5928 31.9277 82.3117 31.9277 82.0126V81.9991C31.9277 81.7 31.984 81.4188 32.0964 81.1557C32.2089 80.8925 32.3641 80.6631 32.562 80.4652C32.7599 80.2673 32.996 80.1121 33.2704 79.9974C33.5448 79.8827 33.8439 79.8265 34.1678 79.8265C34.4917 79.8265 34.7908 79.8827 35.0629 79.9974C35.3351 80.1121 35.5712 80.265 35.7692 80.4585C35.9671 80.6519 36.12 80.8813 36.2302 81.1422C36.3404 81.4053 36.3944 81.6842 36.3944 81.9856V81.9968C36.3944 82.296 36.3382 82.5771 36.2257 82.8402V82.8425ZM35.4273 81.9991C35.4273 81.8192 35.3958 81.6505 35.3351 81.4885C35.2721 81.3289 35.1844 81.1894 35.0719 81.068C34.9572 80.9488 34.8223 80.8521 34.6671 80.7823C34.5119 80.7126 34.341 80.6766 34.1566 80.6766C33.9721 80.6766 33.7967 80.7104 33.6438 80.7778C33.4908 80.8453 33.3581 80.9398 33.2479 81.059C33.1377 81.1782 33.0523 81.3176 32.9893 81.4751C32.9263 81.6325 32.8971 81.8012 32.8971 81.9811V81.9923C32.8971 82.1723 32.9286 82.3432 32.9893 82.5029C33.0523 82.6626 33.14 82.802 33.2524 82.9235C33.3671 83.0427 33.4998 83.1394 33.655 83.2091C33.808 83.2788 33.9811 83.3148 34.1678 83.3148C34.3545 83.3148 34.5209 83.2811 34.6784 83.2136C34.8335 83.1461 34.9662 83.0517 35.0764 82.9325C35.1866 82.8132 35.2721 82.6738 35.3351 82.5164C35.3981 82.3589 35.4273 82.1903 35.4273 82.0103V81.9968V81.9991Z" fill="#00ADAB"/>
<path d="M41.6259 82.8425C41.5134 83.1056 41.3582 83.335 41.1603 83.533C40.9624 83.7309 40.7262 83.8861 40.4518 84.0008C40.1775 84.1155 39.8783 84.1717 39.5545 84.1717C39.2306 84.1717 38.9315 84.1155 38.6593 84.0008C38.3872 83.8861 38.151 83.7331 37.9531 83.5397C37.7552 83.3463 37.6 83.1169 37.4921 82.856C37.3819 82.5928 37.3279 82.3117 37.3279 82.0126V81.9991C37.3279 81.7 37.3841 81.4188 37.4966 81.1557C37.609 80.8925 37.7642 80.6631 37.9621 80.4652C38.16 80.2673 38.3962 80.1121 38.6706 79.9974C38.945 79.8827 39.2441 79.8265 39.568 79.8265C39.8918 79.8265 40.191 79.8827 40.4631 79.9974C40.7352 80.1121 40.9714 80.265 41.1693 80.4585C41.3672 80.6519 41.5202 80.8813 41.6304 81.1422C41.7406 81.4053 41.7945 81.6842 41.7945 81.9856V81.9968C41.7945 82.296 41.7383 82.5771 41.6259 82.8402V82.8425ZM40.8274 81.9991C40.8274 81.8192 40.796 81.6505 40.7352 81.4885C40.6723 81.3289 40.5845 81.1894 40.4721 81.068C40.3574 80.9488 40.2224 80.8521 40.0673 80.7823C39.9121 80.7126 39.7411 80.6766 39.5567 80.6766C39.3723 80.6766 39.1969 80.7104 39.0439 80.7778C38.891 80.8453 38.7583 80.9398 38.6481 81.059C38.5379 81.1782 38.4524 81.3176 38.3894 81.4751C38.3265 81.6325 38.2972 81.8012 38.2972 81.9811V81.9923C38.2972 82.1723 38.3287 82.3432 38.3894 82.5029C38.4524 82.6626 38.5401 82.802 38.6526 82.9235C38.7673 83.0427 38.9 83.1394 39.0552 83.2091C39.2081 83.2788 39.3813 83.3148 39.568 83.3148C39.7546 83.3148 39.9211 83.2811 40.0785 83.2136C40.2337 83.1461 40.3664 83.0517 40.4766 82.9325C40.5868 82.8132 40.6723 82.6738 40.7352 82.5164C40.7982 82.3589 40.8274 82.1903 40.8274 82.0103V81.9968V81.9991Z" fill="#00ADAB"/>
<path d="M46.6255 82.8267C46.5175 83.0831 46.3646 83.3058 46.1667 83.4925C45.9687 83.6791 45.7326 83.8276 45.4582 83.9355C45.1838 84.0435 44.8824 84.0975 44.5541 84.0975H42.9167V79.8962H44.5541C44.8824 79.8962 45.1838 79.9502 45.4582 80.0559C45.7326 80.1616 45.9687 80.3078 46.1667 80.4967C46.3646 80.6856 46.5175 80.906 46.6255 81.1602C46.7334 81.4143 46.7874 81.6887 46.7874 81.9856V81.9968C46.7874 82.2937 46.7334 82.5703 46.6255 82.8245V82.8267ZM45.8203 81.9991C45.8203 81.8146 45.7888 81.646 45.7281 81.4885C45.6651 81.3333 45.5797 81.1984 45.4694 81.0859C45.3592 80.9735 45.2265 80.888 45.0714 80.825C44.9162 80.7621 44.743 80.7328 44.5563 80.7328H43.8411V83.2653H44.5563C44.7452 83.2653 44.9162 83.2361 45.0714 83.1753C45.2265 83.1146 45.3615 83.0291 45.4694 82.9167C45.5797 82.8042 45.6651 82.6738 45.7281 82.5209C45.7911 82.3679 45.8203 82.1992 45.8203 82.0103V81.9968V81.9991Z" fill="#00ADAB"/>
<path d="M49.8124 80.7508V84.0997H48.8881V80.7508H47.6106V79.8984H51.0922V80.7508H49.8147H49.8124Z" fill="#00ADAB"/>
<path d="M54.6479 84.0997L53.7482 82.7548H53.0218V84.0997H52.0974V79.8984H54.0181C54.5174 79.8984 54.9065 80.0199 55.1854 80.265C55.4643 80.5102 55.6015 80.8498 55.6015 81.2861V81.2974C55.6015 81.637 55.5183 81.9136 55.3518 82.1295C55.1854 82.3432 54.9695 82.5006 54.6996 82.6018L55.7252 84.102H54.6456L54.6479 84.0997ZM54.6659 81.3333C54.6659 81.1332 54.6006 80.9825 54.4747 80.8835C54.3465 80.7846 54.1688 80.7328 53.9394 80.7328H53.0218V81.9384H53.9574C54.1846 81.9384 54.36 81.8844 54.4837 81.7764C54.6051 81.6685 54.6659 81.5245 54.6659 81.3446V81.3333V81.3333Z" fill="#00ADAB"/>
<path d="M56.78 84.0997V79.8984H57.7044V84.0997H56.78V84.0997Z" fill="#00ADAB"/>
<path d="M62.2476 82.0058C62.1599 82.1902 62.0384 82.3432 61.8855 82.4669C61.7326 82.5906 61.5504 82.685 61.3457 82.7458C61.1388 82.8087 60.9184 82.838 60.6822 82.838H59.9805V84.0975H59.0562V79.8962H60.7722C61.0241 79.8962 61.249 79.9322 61.4469 80.0019C61.6448 80.0716 61.8135 80.1706 61.9507 80.2988C62.0879 80.427 62.1936 80.5799 62.2701 80.7576C62.3443 80.9353 62.3803 81.1332 62.3803 81.3491V81.3603C62.3803 81.6055 62.3353 81.8191 62.2476 82.0036V82.0058ZM61.4424 81.3693C61.4424 81.1602 61.375 81.0027 61.2423 80.8948C61.1073 80.7868 60.9251 80.7328 60.6935 80.7328H59.9783V82.0171H60.7115C60.9431 82.0171 61.1231 81.9563 61.2513 81.8349C61.3795 81.7134 61.4424 81.5627 61.4424 81.3828V81.3716V81.3693Z" fill="#00ADAB"/>
<path d="M68.7518 84.0997V81.3581L67.5688 83.1529H67.5441L66.3746 81.3761V84.0997H65.4614V79.8984H66.4578L67.5621 81.6752L68.6664 79.8984H69.6627V84.0997H68.7496H68.7518Z" fill="#00ADAB"/>
<path d="M70.9739 84.0997V79.8984H74.1361V80.7216H71.8848V81.574H73.8662V82.3949H71.8848V83.2765H74.1654V84.0997H70.9717H70.9739Z" fill="#00ADAB"/>
<path d="M77.9169 84.0997L76.9745 82.6603L76.0254 84.0997H74.9751L76.4392 81.9631L75.0358 79.8984H76.1154L76.997 81.2614L77.8854 79.8984H78.9357L77.5323 81.9518L78.9964 84.0997H77.9169V84.0997Z" fill="#00ADAB"/>
<path d="M80.0288 84.0997V79.8984H80.9532V84.0997H80.0288Z" fill="#00ADAB"/>
<path d="M85.6582 83.7331C85.5413 83.8253 85.4153 83.9041 85.2759 83.9693C85.1387 84.0345 84.9857 84.0862 84.8238 84.12C84.6596 84.1537 84.4752 84.1717 84.2728 84.1717C83.9647 84.1717 83.679 84.1155 83.4136 84.003C83.1505 83.8906 82.9211 83.7376 82.7299 83.5442C82.5387 83.3508 82.3881 83.1214 82.2801 82.8582C82.1721 82.5928 82.1182 82.3117 82.1182 82.0126V81.9991C82.1182 81.7 82.1721 81.4188 82.2801 81.1557C82.3881 80.8925 82.5387 80.6631 82.7299 80.4652C82.9211 80.2673 83.1527 80.1121 83.4204 79.9974C83.688 79.8827 83.9849 79.8265 84.3088 79.8265C84.5044 79.8265 84.6844 79.8422 84.8463 79.8737C85.0082 79.9052 85.1544 79.9502 85.2871 80.0064C85.4198 80.0626 85.5413 80.1301 85.6537 80.2111C85.7662 80.292 85.8696 80.3798 85.9663 80.4742L85.3771 81.1534C85.2129 81.005 85.0465 80.8903 84.8755 80.8048C84.7046 80.7194 84.5157 80.6789 84.302 80.6789C84.1266 80.6789 83.9624 80.7126 83.814 80.7801C83.6633 80.8476 83.5351 80.942 83.4271 81.0612C83.3192 81.1804 83.236 81.3199 83.1752 81.4773C83.1145 81.6347 83.0853 81.8034 83.0853 81.9833V81.9946C83.0853 82.1745 83.1145 82.3454 83.1752 82.5051C83.236 82.6648 83.3192 82.8043 83.4249 82.9257C83.5306 83.0449 83.6588 83.1416 83.8095 83.2113C83.9602 83.2811 84.1243 83.317 84.3043 83.317C84.5449 83.317 84.7473 83.2743 84.9138 83.1843C85.0802 83.0966 85.2444 82.9774 85.4086 82.8245L85.9978 83.4183C85.8899 83.5352 85.7774 83.6387 85.6627 83.7309L85.6582 83.7331Z" fill="#00ADAB"/>
<path d="M90.1587 84.0997L89.7741 83.1574H87.9974L87.6128 84.0997H86.6704L88.4697 79.8692H89.3221L91.1213 84.0997H90.1542H90.1587ZM88.8858 80.9802L88.328 82.3432H89.4435L88.8858 80.9802V80.9802Z" fill="#00ADAB"/>
<path d="M92.1152 84.0997V79.8984H93.0396V84.0997H92.1152Z" fill="#00ADAB"/>
<path d="M97.3377 84.0997L95.3023 81.4301V84.0997H94.3892V79.8984H95.2416L97.2095 82.4849V79.8984H98.1226V84.0997H97.3355H97.3377Z" fill="#00ADAB"/>
<path d="M46.6187 39.4803V37.3302H43.1348H40.7576V55.0822H43.1348V45.7058H46.2251V43.5601H43.1348V39.4803H46.6187Z" fill="#00ADAB"/>
<path d="M65.0274 39.4803V37.3302H61.5413H59.7916H59.1641V55.0822H59.7916H61.5413H65.0274V52.932H61.5413V45.7058H64.6361V43.5601H61.5413V39.4803H65.0274Z" fill="#00ADAB"/>
<path d="M82.8671 37.3302V43.5601H79.95V37.3302H77.5728V55.0822H79.95V45.7058H82.8671V55.0822H85.2421V37.3302H82.8671Z" fill="#00ADAB"/>
<path d="M56.5056 44.435V40.5891C56.5056 38.4143 55.4485 37.3302 53.3389 37.3302H49.2815V41.1851L50.4691 42.3726L51.6566 41.1851V39.5096H53.0667C53.7752 39.5096 54.1306 39.9436 54.1306 40.8118V43.4499L51.6498 45.9307L50.4668 44.7477L49.2793 45.9352V55.0799H51.6543V50.2309L56.5033 55.0799V51.722L52.8598 48.0785L56.5033 44.435H56.5056Z" fill="#00ADAB"/>
<path d="M50.4685 42.3732L49.2805 43.5612L50.4685 44.7492L51.6565 43.5612L50.4685 42.3732Z" fill="#00ADAB"/>
<path d="M74.9143 37.3392H70.8547C68.7429 37.3392 67.688 38.4232 67.688 40.5981V44.444L72.5325 49.2885L72.537 51.5983C72.537 52.4665 72.1817 52.9028 71.471 52.9028H70.0608V51.2362L68.8733 50.0487L67.6858 51.2362V55.0821H71.7431C73.855 55.0821 74.9098 53.9958 74.9098 51.8232V47.9773L70.0608 43.1283V40.823C70.0608 39.9548 70.4162 39.5185 71.1246 39.5185H72.5348V41.1851L73.7223 42.3726L74.9098 41.1851V37.3392H74.9143Z" fill="#00ADAB"/>
<path d="M35.1012 68.4979L33.3897 66.8539L35.1012 65.2098V61.1907C35.1012 59.0181 34.0464 57.9318 31.9345 57.9318H27.8772V75.695H31.9345C34.0464 75.695 35.1012 74.6087 35.1012 72.4361V68.4957V68.4979ZM32.7262 72.2134C32.7262 73.0815 32.3709 73.5179 31.6624 73.5179H30.2522V66.8876L32.7217 69.2604L32.7262 72.2156V72.2134ZM32.7217 64.4518L30.2522 66.8246V60.1156H31.6624C32.3709 60.1156 32.7262 60.5519 32.7262 61.4178L32.7217 64.4541V64.4518Z" fill="#00ADAB"/>
<path d="M43.1058 72.3866C43.1058 73.1603 42.7842 73.5471 42.1409 73.5471H41.1761C40.4833 73.5471 40.137 73.1603 40.137 72.3866V57.9363H37.762V72.3124C37.762 74.5704 38.7111 75.6995 40.607 75.6995H42.611C44.5249 75.6995 45.483 74.5794 45.483 72.3394V57.9363H43.108V72.3866H43.1058Z" fill="#00ADAB"/>
<path d="M79.1157 57.943H72.1863V60.1313H74.4623V75.6972H76.8396V60.1313H79.1157V57.943Z" fill="#00ADAB"/>
<path d="M55.3676 65.0501V61.2042C55.3676 59.0293 54.3106 57.9453 52.2009 57.9453H48.1436V61.8002L49.3311 62.9877L50.5186 61.8002V60.1246H51.9288C52.6373 60.1246 52.9926 60.5587 52.9926 61.4268V64.065L50.5119 66.5457L49.3289 65.3627L48.1414 66.5502V75.695H50.5164V70.846L55.3654 75.695V72.3371L51.7219 68.6936L55.3654 65.0501H55.3676Z" fill="#00ADAB"/>
<path d="M49.3296 62.9886L48.1416 64.1766L49.3296 65.3646L50.5176 64.1766L49.3296 62.9886Z" fill="#00ADAB"/>
<path d="M65.2546 65.0501V61.2042C65.2546 59.0293 64.1975 57.9453 62.0879 57.9453H58.0306V61.8002L59.2181 62.9877L60.4056 61.8002V60.1246H61.8158C62.5242 60.1246 62.8796 60.5587 62.8796 61.4268V64.065L60.3988 66.5457L59.2158 65.3627L58.0283 66.5502V75.695H60.4033V70.846L65.2524 75.695V72.3371L61.6088 68.6936L65.2524 65.0501H65.2546Z" fill="#00ADAB"/>
<path d="M59.2175 62.9876L58.0295 64.1756L59.2175 65.3636L60.4055 64.1756L59.2175 62.9876Z" fill="#00ADAB"/>
<path d="M98.1248 57.9453H94.0652C91.9533 57.9453 90.8985 59.0293 90.8985 61.2042V65.0501L95.743 69.8946L95.7475 72.2044C95.7475 73.0725 95.3921 73.5089 94.6814 73.5089H93.2713V71.8423L92.0838 70.6548L90.8962 71.8423V75.6882H94.9536C97.0655 75.6882 98.1203 74.6019 98.1203 72.4293V68.5834L93.2713 63.7344V61.4291C93.2713 60.5609 93.6266 60.1246 94.3351 60.1246H95.7452V61.7912L96.9328 62.9787L98.1203 61.7912V57.9453H98.1248Z" fill="#00ADAB"/>
<path d="M70.2903 61.7552H67.9153V75.6972H70.2903V61.7552Z" fill="#00ADAB"/>
<path d="M69.1047 57.9457L67.9167 59.1337L69.1047 60.3216L70.2927 59.1337L69.1047 57.9457Z" fill="#00ADAB"/>
<path d="M88.2356 62.1038V60.9613C88.2356 58.9506 87.2864 57.9453 85.3882 57.9453H83.8544C81.9561 57.9453 81.0093 58.9506 81.0093 60.9613V62.1353V65.6686L82.1968 66.8561L83.3843 65.6686V61.4696V61.1344C83.3843 60.4417 83.6969 60.0954 84.3244 60.0954H84.9182C85.5457 60.0954 85.8583 60.4417 85.8583 61.1344V62.1038L87.0458 63.2913L88.2333 62.1038H88.2356Z" fill="#00ADAB"/>
<path d="M82.2009 66.8567L81.0129 68.0447L82.2009 69.2327L83.3889 68.0447L82.2009 66.8567Z" fill="#00ADAB"/>
<path d="M87.0493 63.2913L85.8613 64.4792L87.0493 65.6672L88.2373 64.4792L87.0493 63.2913Z" fill="#00ADAB"/>
<path d="M85.8605 66.8561V72.1752V72.5103C85.8605 73.203 85.5479 73.5494 84.9204 73.5494H84.3266C83.6991 73.5494 83.3865 73.203 83.3865 72.5103V70.4209L82.199 69.2334L81.0115 70.4209V72.6835C81.0115 74.6941 81.9606 75.6995 83.8588 75.6995H85.3927C87.2909 75.6995 88.2378 74.6941 88.2378 72.6835V71.5094V66.8583L87.0502 65.6708L85.8627 66.8583L85.8605 66.8561Z" fill="#00ADAB"/>
</g>
<defs>
<clipPath id="clip0_2559_717">
<rect width="126" height="126" fill="white"/>
</clipPath>
</defs>
</svg>
