<svg id="aaf1e199-457d-4775-9cc8-fb725bab03c6" data-name="a16f7836-c552-4352-8299-02e38d509854" xmlns="http://www.w3.org/2000/svg" viewBox="0 0 171.3 49.14071"><path d="M88.3,7.1s-.5,1.2,0,1.5c0,0,3.4,1.4,4.3,2.6,0,0,.5-1.2-.1-1.8,0,0-4.1-2.7-4.2-2.3" transform="translate(0.00001 -0.00001)" fill="#c10024"/><path d="M30.2,3.8S28,7.5,29.8,8.5c0,0,.6.5,2.1.1,0,0,1.2-2.4.5-3.8.1-.1-.6-1.3-2.2-1" transform="translate(0.00001 -0.00001)" fill="#c10024"/><path d="M2.9,9c0,2.1-.1,4.5-.2,7.2-.2,3.9-.5,6.1-.9,6.5a.36735.36735,0,0,1-.3.1c-.2,0-.5-.3-.7-.8a3.81583,3.81583,0,0,1-.4-1.3A49.3092,49.3092,0,0,1,.8,15a49.309,49.309,0,0,0,.4-5.7C1.2,7.6.9,6.5.4,6.1.2,5.9,0,5.8,0,5.6,0,5.2.3,5,1,5c1.3.2,1.9,1.4,1.9,4" transform="translate(0.00001 -0.00001)" fill="#c10024"/><path d="M11.1,21.8c0,.5-.6.9-1.8,1.4a7.02687,7.02687,0,0,1-2.3.6c-2.3,0-3.5-1.8-3.5-5.5a9.99981,9.99981,0,0,1,1.3-4.9c.9-1.8,2-2.7,3.2-2.7a2.41667,2.41667,0,0,1,1.9,1.2A3.76086,3.76086,0,0,1,9.7,17a3.248,3.248,0,0,1-2.2,1.3,2.30261,2.30261,0,0,1-.9-.3,2.30245,2.30245,0,0,0-.9-.3H5.6A1.75483,1.75483,0,0,0,5,19.2a2.10966,2.10966,0,0,0,.7,1.9,3.09821,3.09821,0,0,0,1.6.4,7.17486,7.17486,0,0,0,1.3-.1,7.17306,7.17306,0,0,1,1.3-.1c.8-.2,1.2,0,1.2.5M9.2,14.3c0-.6-.4-.9-1.3-.9a1.81678,1.81678,0,0,0-1.4,1.5,1.03279,1.03279,0,0,0,.4.8,1.27023,1.27023,0,0,0,.7.4c.3,0,.6-.2,1-.6a1.9348,1.9348,0,0,0,.6-1.2" transform="translate(0.00001 -0.00001)" fill="#c10024"/><path d="M93.7,22.3c0,.3-.2.5-.6.5a1.20932,1.20932,0,0,1-.9-.6,8.64953,8.64953,0,0,1-.7-1,4.01029,4.01029,0,0,1-1.7.8,2.68851,2.68851,0,0,1-1.8-.8,3.22723,3.22723,0,0,1-.8-2.1,2.79186,2.79186,0,0,1,.6-1.8s.5-.4,1.2-1.1a2.52323,2.52323,0,0,0,1-1.5,1.952,1.952,0,0,0,.1-.7c0-.3-.2-.5-.7-.5a1.7402,1.7402,0,0,0-1.4.9q-.6.9-.9.9a.86436.86436,0,0,1-.6-.3,1.13552,1.13552,0,0,1-.3-.8,2.75139,2.75139,0,0,1,1.3-2.1,3.35847,3.35847,0,0,1,2-1,2.24444,2.24444,0,0,1,1.5.8,2.90038,2.90038,0,0,1,.8,1.8,10.505,10.505,0,0,1-.2,1.3,10.50476,10.50476,0,0,0-.2,1.3,7.60626,7.60626,0,0,0,1,3.1,7.08037,7.08037,0,0,1,1.3,2.9m-2.6-2.9a3.55321,3.55321,0,0,0-.2-1c-.1-.4-.3-.7-.5-.7-.3,0-.6.2-1.1.6a1.53822,1.53822,0,0,0-.6,1.1c0,.3.2.5.6.7a3.09117,3.09117,0,0,0,.8.2c.6,0,1-.3,1-.9" transform="translate(0.00001 -0.00001)" fill="#c10024"/><path d="M109.2,12.1a10.87968,10.87968,0,0,1-.9,4.1,7.0695,7.0695,0,0,1-2.2,3.1,3.94056,3.94056,0,0,1-1.5.4c-.6,0-1.1.1-1.7.1-.1.2-.2,2.4-.6,6.7-.3,3.5-.7,5.3-1.3,5.3h-.3c-1.1,0-1.6-1.3-1.6-3.8,0-.9,0-2.2.1-4s.1-3.1.1-4c0-.6,0-1.6-.1-3-.1-1.3-.1-2.3-.1-3,0-6.9,1.8-10.3,5.3-10.3,1.2,0,2.4,1,3.4,3.1a11.34755,11.34755,0,0,1,1.4,5.3m-2.5-2.5c0-.9-.1-.4-.6-1.2-.5-.9-1.1-1.4-1.8-1.4-.6,0-1.2,1.1-1.6,3.2a22.92175,22.92175,0,0,0-.4,4.3,6.33429,6.33429,0,0,0,.3,2.3h1.3c.7,0,1.3-.7,2-2.2a16.163,16.163,0,0,0,.8-5" transform="translate(0.00001 -0.00001)" fill="#c10024"/><path d="M113.6,14.4a55.04714,55.04714,0,0,1-.8,6c-.5,3.3-.9,5.1-1.2,5.3a1.08029,1.08029,0,0,1-.7.3q-.6,0-.9-.9a4.145,4.145,0,0,1-.2-1.6c0-.5.1-1.2.2-2.1a18.75715,18.75715,0,0,0,.3-2c0-.3.2-2.6.4-6.7a3.07942,3.07942,0,0,1,.3-1.3c.2-.4.5-.7.8-.7,1.2.1,1.8,1.3,1.8,3.7" transform="translate(0.00001 -0.00001)" fill="#c10024"/><path d="M130.9,18.6c0,.6-1.4,1.3-4.3,2.1-1.8.5-3.6.9-5.5,1.4a23.287,23.287,0,0,1-3.4,1.2c-.5,0-1-.3-1.6-1.1a3.223,3.223,0,0,1-.9-2c0-.9.8-2.2,2.4-3.8.5-.5,2-2,4.5-4.2,1.6-1.5,2.5-2.4,2.5-2.8,0-.2-.1-.3-.4-.3a8.11456,8.11456,0,0,0-2.9.9,8.11489,8.11489,0,0,1-2.9.9c-1.5,0-2.3-.8-2.3-2.5S118,5.8,122,5.7h1.8a4.76145,4.76145,0,0,1,2.7,1c1.2.8,1.8,1.6,1.8,2.6,0,.8-.7,1.9-2.2,3.4q-.75.75-4.2,3.6c-1.5,1.3-2.3,2.1-2.2,2.4,0,.2.2.3.7.3a8.09054,8.09054,0,0,0,2.8-.8,8.66531,8.66531,0,0,1,2.6-.8,6.60219,6.60219,0,0,1,1.4-.1,7.613,7.613,0,0,1,2.1.3c1,.1,1.6.5,1.6,1" transform="translate(0.00001 -0.00001)" fill="#c10024"/><path d="M147.1,18.7c0,.6-1.4,1.3-4.3,2.1-1.8.4-3.7.9-5.5,1.3a17.13624,17.13624,0,0,1-3.4,1.1c-.5,0-1-.4-1.6-1.1a3.22307,3.22307,0,0,1-.9-2c0-.9.8-2.2,2.5-3.8.5-.5,2.1-1.9,4.6-4.2,1.7-1.5,2.5-2.4,2.5-2.7,0-.2-.1-.3-.4-.3a9.84336,9.84336,0,0,0-2.9.8,7.43817,7.43817,0,0,1-2.9.8c-1.5,0-2.3-.8-2.3-2.5s2-2.6,5.9-2.6h1.8a4.99063,4.99063,0,0,1,2.7,1.1,3.33261,3.33261,0,0,1,1.8,2.6c0,.8-.8,1.9-2.3,3.3-.5.5-1.9,1.7-4.3,3.6-1.5,1.2-2.3,2-2.3,2.4,0,.2.2.3.7.3a7.51451,7.51451,0,0,0,2.8-.7,8.665,8.665,0,0,1,2.6-.8,6.60224,6.60224,0,0,1,1.4-.1,7.61258,7.61258,0,0,1,2.1.3c1.2.2,1.7.6,1.7,1.1" transform="translate(0.00001 -0.00001)" fill="#c10024"/><path d="M161.3,24c0,.6-.4.9-1.1.9a2.231,2.231,0,0,1-1.6-1,10.9157,10.9157,0,0,0-1.3-1.7,6.99931,6.99931,0,0,1-3.1,1.4,4.22093,4.22093,0,0,1-3.2-1.5,5.60611,5.60611,0,0,1-1.5-3.9,4.77067,4.77067,0,0,1,1.1-3.2c.1-.1.8-.7,2.2-1.9a5.62311,5.62311,0,0,0,1.9-2.6,3.42168,3.42168,0,0,0,.2-1.3c0-.6-.4-.9-1.3-.9a3.28591,3.28591,0,0,0-2.5,1.7c-.8,1.1-1.4,1.7-1.7,1.7a1.3818,1.3818,0,0,1-1.1-.6,2.45624,2.45624,0,0,1-.5-1.5c0-1.2.8-2.5,2.4-3.8,1.5-1.2,2.7-1.8,3.7-1.8a3.984,3.984,0,0,1,2.8,1.4,4.88907,4.88907,0,0,1,1.4,3.3,15.16577,15.16577,0,0,1-.3,2.4,12.90645,12.90645,0,0,0-.3,2.4,15.881,15.881,0,0,0,1.8,5.7c1.4,2.3,2,4,2,4.8m-4.9-5.3a3.92234,3.92234,0,0,0-.4-1.8c-.2-.8-.6-1.2-.9-1.2a2.93436,2.93436,0,0,0-1.9,1,2.57323,2.57323,0,0,0-1.1,2c0,.5.3.9,1,1.2a4.1909,4.1909,0,0,0,1.5.4c1.2,0,1.8-.5,1.8-1.6" transform="translate(0.00001 -0.00001)" fill="#c10024"/><path d="M171.1,9.1a2.08954,2.08954,0,0,1-1,2.1c-.6.2-1.2.3-1.8.5a1.24558,1.24558,0,0,0-1,1.4c0,.3.3.6.9.8a7.63906,7.63906,0,0,1,1.6.8,2.40672,2.40672,0,0,1,.8,1.9c0,1.2-.9,2.7-2.8,4.3-1.8,1.6-3.3,2.4-4.3,2.4s-1.4-.4-1.4-1.1a2.57316,2.57316,0,0,1,1.2-2c.3-.2,1.1-.7,2.3-1.4.8-.5,1.2-.9,1.2-1.1a1.35338,1.35338,0,0,0-1-1.5,6.22032,6.22032,0,0,0-1.6-.1c-1,0-1.5-.7-1.5-2a3.587,3.587,0,0,1,2.5-3.5,22.87345,22.87345,0,0,0,2.6-1.9c1.2-1,1.9-1.5,2.2-1.5a.961.961,0,0,1,.9.6,4.43734,4.43734,0,0,1,.2,1.3" transform="translate(0.00001 -0.00001)" fill="#c10024"/><path d="M111.4,3.4s-3.4,5.8,1.7,4.8c0,0,2.4-5.1-1.7-4.8" transform="translate(0.00001 -0.00001)" fill="#c10024"/><path d="M27.7,24.3c0,.6-.2.9-.7.9h-.3c-1.4-1.9-2.5-3.2-3.3-4.1a22.17313,22.17313,0,0,0-4-3.1c-.1-.1-.1-.1-.2-.1-.2,0-.4,1-.4,3,0,1.7-.2,2.6-.7,2.6-1.1,0-1.7-.8-1.7-2.5,0-.5.1-1.2.2-2.3.1-1,.2-1.8.2-2.3v-.3c-.1-1.4-.2-3.6-.5-6.8a67.89892,67.89892,0,0,1-.4-6.8V.7C16,.2,16.4,0,17,0c.9,0,1.4,1,1.7,3,.1,1.4.1,2.9.2,4.3a33.35026,33.35026,0,0,0,.5,4h.3c.5,0,1.1-.4,1.8-1.3s1.2-1.3,1.6-1.3a1.89089,1.89089,0,0,1,1.4.7,1.98971,1.98971,0,0,1,.7,1.6q0,.75-1.8,2.1-1.8,1.2-1.8,1.8c0,.5.5,1.3,1.6,2.4,1.5,1.6,2.5,2.7,2.9,3.2a5.94638,5.94638,0,0,1,1.6,3.8" transform="translate(0.00001 -0.00001)" fill="#c10024"/><path d="M32.9,14.2a55.04238,55.04238,0,0,1-.8,6c-.5,3.3-.9,5.1-1.2,5.3a1.08027,1.08027,0,0,1-.7.3q-.6,0-.9-.9a4.14468,4.14468,0,0,1-.2-1.6c0-.5.1-1.2.2-2.1a18.75753,18.75753,0,0,0,.3-2c0-.3.2-2.6.4-6.7a3.07923,3.07923,0,0,1,.3-1.3c.2-.4.5-.7.8-.7,1.2.2,1.8,1.4,1.8,3.7" transform="translate(0.00001 -0.00001)" fill="#c10024"/><path d="M42.7,14.7a8.761,8.761,0,0,1-1.4,4.5c-1,1.6-2,2.4-3.1,2.4a3.20334,3.20334,0,0,1-2.8-1.7,7.20784,7.20784,0,0,1-1-4,25.19286,25.19286,0,0,1,.5-3.1c.3-1.3.5-2.4.7-3.1.1-.4.2-.6.2-.7s0-.2-.1-.2a1.68945,1.68945,0,0,0-.5.2c-.2.1-.3.2-.5.2s-.2-.1-.2-.4a3.78577,3.78577,0,0,1,1.4-2.7,3.62632,3.62632,0,0,1,2.4-1.3c1.1,0,2.1,1.3,3.1,3.9a21.01287,21.01287,0,0,1,1.3,6M40.3,14c0-2.1-.5-3.2-1.6-3.2-.7,0-1.3.7-1.7,2a11.85138,11.85138,0,0,0-.5,3.2,4.87171,4.87171,0,0,0,.2,1.5,1.91223,1.91223,0,0,0,.9.9.36743.36743,0,0,0,.3.1c.7,0,1.2-.6,1.7-1.7a5.547,5.547,0,0,0,.7-2.8" transform="translate(0.00001 -0.00001)" fill="#c10024"/><path d="M52.2,9a2.08954,2.08954,0,0,1-1,2.1c-.6.2-1.2.3-1.8.5a1.30826,1.30826,0,0,0-1,1.4c0,.3.3.6.9.8a7.63923,7.63923,0,0,1,1.6.8,2.40675,2.40675,0,0,1,.8,1.9c0,1.2-.9,2.7-2.8,4.3-1.8,1.6-3.2,2.4-4.3,2.4-1,0-1.4-.4-1.4-1.1a2.57313,2.57313,0,0,1,1.2-2c.3-.2,1.1-.7,2.3-1.4.8-.5,1.2-.9,1.2-1.1a1.35337,1.35337,0,0,0-1-1.5,3.68931,3.68931,0,0,0-1.7-.3c-1,0-1.5-.7-1.5-2a3.587,3.587,0,0,1,2.5-3.5,22.87245,22.87245,0,0,0,2.6-1.9c1.2-1,1.9-1.5,2.2-1.5a.961.961,0,0,1,.9.6A4.01231,4.01231,0,0,1,52.2,9" transform="translate(0.00001 -0.00001)" fill="#c10024"/><path d="M60,28.3c-.1.4-.6.5-1.6.5-1.1,0-1.6-.3-1.6-.8,0-1,.1-.3.3-2a14.94816,14.94816,0,0,0,.3-2.2c-1.6,0-2.8-1.2-3.6-3.4a18.77712,18.77712,0,0,1,.5-12.9c1.1-2.8,2.3-4.2,3.7-4.2a2.46276,2.46276,0,0,1,1.9.9,2.95435,2.95435,0,0,1,.8,2.3v.3c0,1.5-.2,3.9-.6,7.4-.3,3.1-.4,5.6-.4,7.4a18.15279,18.15279,0,0,0,.3,4.1c-.1.1.1,1.8,0,2.6M57.8,12.7c0-3.2-.4-4.8-1.1-4.8-.5,0-.9,1.1-1.3,3.2a36.64469,36.64469,0,0,0-.4,4.2c0,2.6.4,3.9,1.3,3.9,1-.1,1.5-2.2,1.5-6.5" transform="translate(0.00001 -0.00001)" fill="#c10024"/><path d="M71.7,9.5a31.828,31.828,0,0,1-.3,3.6,33.20927,33.20927,0,0,0-.3,3.7c0,.5,0,1.4.1,2.5s.1,1.9.1,2.5c0,2.5-.4,3.8-1.3,3.8q-.9,0-.9-1.2a9.45851,9.45851,0,0,0-.9-3.5c-1.7,1.7-2.8,2.6-3.2,2.6-1.1,0-2.1-.9-2.7-2.8a15.58376,15.58376,0,0,1-.8-4.8,22.37486,22.37486,0,0,1,1.1-5.6Q63.8,6.1,65,6.1q1.5,0,1.5,1.8a3.43311,3.43311,0,0,1-.7,1.9,13.15,13.15,0,0,0-1.2,2.4,14.84074,14.84074,0,0,0-.7,4.6c0,1.4.4,2.1,1.1,2.1,1.1,0,1.9-1.1,2.4-3.2.1-.4.4-2.4,1-6,.3-2.1.8-3.2,1.3-3.2s1,.4,1.3,1.2a1.98575,1.98575,0,0,1,.7,1.8" transform="translate(0.00001 -0.00001)" fill="#c10024"/><path d="M81.6,21.1c0,.6-.7,1.2-2.2,1.7a8.39483,8.39483,0,0,1-2.9.7c-2.9,0-4.3-2.3-4.3-6.8a12.64538,12.64538,0,0,1,1.6-6.1c1.2-2.2,2.5-3.4,4-3.4a3.41057,3.41057,0,0,1,2.4,1.4,4.47341,4.47341,0,0,1-.2,6.3,3.59084,3.59084,0,0,1-2.7,1.6,2.42878,2.42878,0,0,1-1.1-.4c-.5-.3-.9-.4-1.1-.3H75a2.2262,2.2262,0,0,0-.7,1.9,2.49762,2.49762,0,0,0,.9,2.3,3.52364,3.52364,0,0,0,2,.4,10.364,10.364,0,0,0,1.6-.1,10.36536,10.36536,0,0,1,1.6-.1c.7-.1,1.2.2,1.2.9m-2.3-9.3c0-.8-.6-1.1-1.7-1.1a2.1213,2.1213,0,0,0-1.8,1.8,1.55723,1.55723,0,0,0,1.4,1.4,1.877,1.877,0,0,0,1.3-.7,2.27485,2.27485,0,0,0,.8-1.4" transform="translate(0.00001 -0.00001)" fill="#c10024"/><path d="M63.2,30.7s28,28.4,59.3,1c-.1,0-21,39.9-59.3-1" transform="translate(0.00001 -0.00001)" fill="#093b29"/><path d="M168.9,22.6v.3h-.8v2h-.3v-2H167v-.3Z" transform="translate(0.00001 -0.00001)" fill="#093b29"/><path d="M169.2,22.6h.4l.7,1.9.6-1.9h.4v2.3H171V23.1l-.6,1.9h-.3l-.7-1.9v2h-.2Z" transform="translate(0.00001 -0.00001)" fill="#093b29"/></svg>