<?xml version="1.0" encoding="UTF-8" standalone="no"?><!DOCTYPE svg PUBLIC "-//W3C//DTD SVG 1.1//EN" "http://www.w3.org/Graphics/SVG/1.1/DTD/svg11.dtd"><svg width="100%" height="100%" viewBox="0 0 2667 2667" version="1.1" xmlns="http://www.w3.org/2000/svg" xmlns:xlink="http://www.w3.org/1999/xlink" xml:space="preserve" xmlns:serif="http://www.serif.com/" style="fill-rule:evenodd;clip-rule:evenodd;stroke-linejoin:round;stroke-miterlimit:2;"><g id="O-Tacos---Corp_2" serif:id="O&apos;Tacos---Corp_2"><g id="Group"><path id="Shape" d="M1118.28,461.155c8.256,-4.017 16.75,-7.646 26.22,-9.741c2.384,-0.51 4.79,-0.849 7.539,-0.994l2.169,0c0.659,0.044 0.831,0.044 1.948,0.145c1.487,0.194 3.066,0.586 4.579,1.241c3.066,1.289 5.67,3.577 7.398,6.01c1.777,2.437 2.895,5.02 3.77,7.453c3.211,9.837 3.462,19.015 4.896,27.462c0.681,4.14 1.631,8.232 3.07,10.665c0.73,1.219 1.311,1.606 1.777,1.804c0.774,0.29 1.526,0.29 2.309,0.119c1.702,-0.366 4.676,-2.363 7.302,-5.139c2.7,-2.776 5.3,-6.085 7.838,-9.543c10.196,-13.951 19.182,-29.992 32.448,-44.163c6.664,-6.991 14.577,-13.929 25.265,-17.823c5.327,-1.949 11.221,-2.825 17.137,-2.389l2.406,0.246l1.729,0.247c1.68,0.29 2.797,0.585 4.192,0.924c2.696,0.73 5.375,1.654 7.978,2.872c10.583,4.866 18.378,14.07 23.075,23.081c4.821,9.151 7.623,18.355 10.13,27.242c2.485,8.888 4.544,17.533 7.104,25.54c2.511,7.963 5.674,15.386 9.883,20.186c4.289,4.676 8.868,6.74 16.235,6.885c6.546,0.101 12.756,-1.843 18.083,-6.182c5.481,-4.28 10.275,-10.809 14.753,-18.016c4.486,-7.154 8.669,-15.069 13.34,-23.032c4.742,-7.937 9.998,-16.019 16.719,-23.472c6.677,-7.4 15.123,-14.118 24.958,-18.113c4.86,-2.046 9.998,-3.383 15.113,-4.136c2.56,-0.391 5.059,-0.611 7.79,-0.73c1.386,-0.075 2.314,-0.049 3.51,-0.049l3.893,0.093c9.932,0.585 19.397,2.728 28.436,5.605c36.02,11.927 66.106,33.252 94.508,55.558c8.027,6.525 15.874,13.292 23.589,20.159l-115.598,-115.648c-71.947,-67.93 -104.782,-17.871 -132.586,-10.401c-25.876,6.943 -63.893,-28.632 -89.383,-43.186c-28.331,-16.169 -68.226,6.304 -102.961,41.075c-20.761,20.788 -63.823,60.23 -94.028,87.596c2.604,-1.901 5.208,-3.845 7.887,-5.645c7.512,-5.112 15.355,-9.789 23.58,-13.806m234.694,41.801c2.56,1.777 5.041,3.313 6.967,3.898c1.874,0.559 3.092,0.757 5.617,-0.321c2.459,-1.021 5.138,-3.137 8.472,-5.231c0.198,3.946 -0.849,7.717 -3.651,11.078c-1.408,1.659 -3.427,3.137 -5.938,3.867c-2.507,0.735 -5.283,0.541 -7.544,-0.237c-4.579,-1.606 -7.446,-4.748 -9.492,-7.942c-1.948,-3.308 -3.197,-6.863 -3.171,-10.858c3.44,1.954 6.11,3.995 8.74,5.746" style="fill:#e85735;fill-rule:nonzero;"/><path id="Shape1" serif:id="Shape" d="M666.464,1219.98c-14.977,-13.78 -32.422,-24.497 -52.338,-32.139c-19.93,-7.642 -40.841,-11.444 -62.719,-11.444c-22.173,0 -43.137,3.802 -62.922,11.444c-19.793,7.642 -37.172,18.359 -52.14,32.139c-14.973,13.828 -26.897,30.283 -35.738,49.474c-8.828,19.182 -13.262,40.318 -13.262,63.398c0,23.081 4.434,44.216 13.262,63.35c8.841,19.231 20.765,35.791 35.738,49.716c14.968,13.925 32.347,24.735 52.14,32.381c19.785,7.642 40.749,11.444 62.922,11.444c21.878,0 42.789,-3.797 62.719,-11.444c19.916,-7.646 37.361,-18.456 52.338,-32.381c14.99,-13.925 26.924,-30.485 35.73,-49.716c8.841,-19.138 13.261,-40.269 13.261,-63.35c0,-23.08 -4.42,-44.216 -13.261,-63.398c-8.806,-19.191 -20.74,-35.642 -35.73,-49.474m-39.992,146.569c-3.58,10.519 -8.841,19.574 -15.729,27.225c-6.906,7.637 -15.285,13.726 -25.164,18.21c-9.888,4.479 -21.298,6.722 -34.172,6.722c-12.879,0 -24.272,-2.248 -34.151,-6.722c-9.888,-4.484 -18.28,-10.568 -25.173,-18.21c-6.888,-7.647 -12.122,-16.706 -15.72,-27.225c-3.607,-10.471 -5.401,-21.721 -5.401,-33.697c0,-12.033 1.794,-23.225 5.401,-33.697c3.598,-10.519 8.832,-19.578 15.72,-27.22c6.893,-7.646 15.285,-13.634 25.173,-17.968c9.879,-4.334 21.272,-6.525 34.151,-6.525c12.874,0 24.284,2.191 34.172,6.525c9.879,4.334 18.258,10.322 25.164,17.968c6.888,7.642 12.149,16.701 15.729,27.22c3.598,10.472 5.406,21.664 5.406,33.697c0,11.98 -1.808,23.23 -5.406,33.697" style="fill:#e85735;fill-rule:nonzero;"/><path id="Shape2" serif:id="Shape" d="M796.27,1209.21c0,0 -0.145,-0.586 -0.414,-1.703c0,0.44 -0.074,0.339 -0.224,-0.198l0,-0.194l0,-0.193l0,-0.242c-1.94,-6.089 -5.52,-11.057 -10.781,-14.95c-5.283,-3.85 -11.141,-5.794 -17.642,-5.794c-8.301,0 -15.365,2.921 -21.153,8.715c-5.815,5.847 -8.736,12.856 -8.736,21.184c0,8.179 2.921,15.139 8.736,20.982c5.788,5.799 12.852,8.672 21.153,8.672c1.244,0 2.625,-0.053 4.165,-0.198c-2.362,8.183 -7.552,14.607 -15.584,19.336l8.52,11.395c16.332,-7.066 26.704,-18.408 31.111,-34.04c2.771,-9.692 3.136,-20.062 1.073,-31.114c-0.141,-1.122 -0.224,-1.658 -0.224,-1.658" style="fill:#e85735;fill-rule:nonzero;"/><path id="Shape3" serif:id="Shape" d="M1077.34,1180l-243.605,0l0,68.757l80.911,0l0,236.941l81.782,0l0,-236.941l80.912,0l0,-68.757Z" style="fill:#e85735;fill-rule:nonzero;"/><path id="Shape4" serif:id="Shape" d="M1209.49,1172.35c-1.197,0 -2.098,0.73 -2.71,2.235l-148.768,311.105l80.01,0l11.243,-26.05l115.057,0l11.687,26.05l84.518,0l-148.341,-311.105c-0.603,-1.505 -1.504,-2.235 -2.696,-2.235Zm-34.151,226.131l30.566,-71.041l31.454,71.041l-62.02,0Z" style="fill:#e85735;fill-rule:nonzero;"/><path id="Shape5" serif:id="Shape" d="M1562.8,1406.81c-10.781,7.941 -26.074,11.883 -45.859,11.883c-11.683,0 -22.173,-2.244 -31.45,-6.718c-9.294,-4.484 -17.159,-10.568 -23.607,-18.215c-6.453,-7.642 -11.392,-16.701 -14.827,-27.22c-3.453,-10.471 -5.182,-21.721 -5.182,-33.701c0,-12.029 1.65,-23.226 4.94,-33.697c3.307,-10.515 8.102,-19.574 14.405,-27.216c6.281,-7.651 13.833,-13.639 22.683,-17.968c8.837,-4.338 18.94,-6.529 30.333,-6.529c9.597,0 18.065,1.073 25.393,3.168c7.345,2.046 13.798,4.87 19.322,8.275c5.551,3.458 10.275,7.357 14.168,11.686c3.902,4.382 7.355,8.764 10.346,13.247l61.588,-41.779c-6.307,-9.301 -13.657,-17.968 -22.028,-26.103c-8.401,-8.082 -17.964,-15.046 -28.771,-20.889c-10.789,-5.843 -22.934,-10.418 -36.389,-13.731c-13.512,-3.26 -28.481,-4.915 -44.958,-4.915c-20.405,0 -39.921,3.797 -58.668,11.444c-18.72,7.642 -35.197,18.355 -49.431,32.135c-14.242,13.832 -25.546,30.287 -33.934,49.473c-8.402,19.187 -12.585,40.318 -12.585,63.399c0,23.085 4.263,44.216 12.8,63.354c8.547,19.231 20.062,35.791 34.612,49.716c14.511,13.925 31.384,24.735 50.557,32.381c19.182,7.642 39.552,11.444 61.123,11.444c31.177,0 57.542,-5.746 79.13,-17.287c21.561,-11.54 39.991,-30.045 55.281,-55.562l-62.93,-40.464c-6.585,12.324 -15.281,22.452 -26.062,30.389" style="fill:#e85735;fill-rule:nonzero;"/><path id="Shape6" serif:id="Shape" d="M1954.27,1219.98c-14.99,-13.78 -32.439,-24.497 -52.356,-32.139c-19.934,-7.642 -40.836,-11.444 -62.701,-11.444c-22.199,0 -43.154,3.802 -62.921,11.444c-19.785,7.642 -37.164,18.359 -52.163,32.139c-14.964,13.828 -26.897,30.283 -35.703,49.474c-8.867,19.182 -13.266,40.318 -13.266,63.398c0,23.081 4.399,44.216 13.266,63.35c8.806,19.231 20.739,35.791 35.703,49.716c14.999,13.925 32.378,24.735 52.163,32.381c19.767,7.642 40.722,11.444 62.921,11.444c21.865,0 42.767,-3.797 62.701,-11.444c19.917,-7.646 37.366,-18.456 52.356,-32.381c15,-13.925 26.898,-30.485 35.739,-49.716c8.832,-19.138 13.266,-40.269 13.266,-63.35c0,-23.08 -4.434,-44.216 -13.266,-63.398c-8.841,-19.191 -20.739,-35.642 -35.739,-49.474m-39.991,146.569c-3.598,10.519 -8.859,19.574 -15.747,27.225c-6.888,7.637 -15.285,13.726 -25.173,18.21c-9.879,4.479 -21.271,6.722 -34.15,6.722c-12.897,0 -24.285,-2.248 -34.151,-6.722c-9.905,-4.484 -18.306,-10.568 -25.19,-18.21c-6.888,-7.647 -12.127,-16.706 -15.729,-27.225c-3.598,-10.471 -5.406,-21.721 -5.406,-33.697c0,-12.033 1.803,-23.225 5.406,-33.697c3.602,-10.519 8.841,-19.578 15.729,-27.22c6.879,-7.646 15.285,-13.634 25.19,-17.968c9.862,-4.334 21.254,-6.525 34.151,-6.525c12.879,0 24.271,2.191 34.15,6.525c9.888,4.334 18.28,10.322 25.173,17.968c6.888,7.642 12.149,16.701 15.747,27.22c3.576,10.472 5.379,21.664 5.379,33.697c0,11.98 -1.799,23.23 -5.379,33.697" style="fill:#e85735;fill-rule:nonzero;"/><path id="Shape7" serif:id="Shape" d="M2261.01,1363.62c-2.842,-9.108 -7.42,-17.533 -13.702,-25.18c-6.307,-7.642 -14.7,-14.509 -25.173,-20.643c-10.49,-6.137 -23.365,-11.786 -38.676,-16.85l-40.427,-13.489c-7.5,-2.433 -12.971,-5.258 -16.407,-8.571c-3.453,-3.308 -5.181,-7.932 -5.181,-13.925c0,-5.987 2.481,-11.003 7.425,-15.09c4.939,-4.043 12.364,-6.045 22.252,-6.045c12.294,0 22.173,2.002 29.672,6.045c7.491,4.087 14.384,9.393 20.66,15.966l46.762,-48.981c-4.5,-5.407 -9.836,-10.471 -15.972,-15.293c-6.14,-4.774 -13.266,-9.059 -21.35,-12.807c-8.072,-3.749 -17.445,-6.767 -28.081,-9.006c-10.635,-2.244 -22.714,-3.362 -36.195,-3.362c-13.464,0 -26.51,1.949 -39.099,5.843c-12.584,3.894 -23.752,9.692 -33.469,17.286c-9.76,7.642 -17.48,17.189 -23.171,28.584c-5.696,11.395 -8.547,24.542 -8.547,39.54c0,12.614 1.883,23.762 5.622,33.503c3.752,9.736 9.008,18.355 15.751,25.856c6.717,7.497 14.753,13.925 24.047,19.332c9.276,5.408 19.477,9.886 30.548,13.49l35.954,12.125c10.195,3.308 17.774,6.815 22.714,10.563c4.939,3.749 7.424,8.91 7.424,15.531c0,8.672 -3.386,14.902 -10.129,18.646c-6.743,3.757 -16.253,5.6 -28.547,5.6c-15.267,0 -27.852,-3.211 -37.757,-9.639c-9.879,-6.476 -18.58,-14.317 -26.048,-23.613l-59.311,44.502c4.768,6.283 10.825,12.808 18.18,19.574c7.328,6.718 16.186,12.807 26.527,18.215c10.328,5.358 22.327,9.885 35.954,13.484c13.636,3.56 28.969,5.359 46.053,5.359c20.088,0 37.471,-2.384 52.14,-7.158c14.683,-4.822 26.752,-11.492 36.196,-20.014c9.422,-8.57 16.402,-18.747 20.907,-30.577c4.477,-11.831 6.742,-24.788 6.742,-38.91c0,-10.753 -1.438,-20.74 -4.288,-29.891" style="fill:#e85735;fill-rule:nonzero;"/><path id="Shape8" serif:id="Shape" d="M817.352,1749.52l-35.417,-42.993l-106.564,87.94l35.395,42.949c27.553,33.406 69.388,39.443 101.066,13.34c31.172,-25.756 33.046,-67.878 5.52,-101.236m-27.772,74.262c-16.917,13.973 -40.749,11.249 -54.991,-6.041l-13.583,-16.455l58.958,-48.598l13.557,16.459c14.22,17.238 12.509,41.049 -3.941,54.635" style="fill:#373435;fill-rule:nonzero;"/><path id="Shape9" serif:id="Shape" d="M903.88,1946.58l18.254,-22.883l-47.825,-38.127l15.698,-19.719l54.82,43.675l18.597,-23.322l-81.664,-65.101l-86.102,108.094l81.695,65.057l18.597,-23.371l-54.819,-43.679l14.95,-18.751l47.799,38.127Z" style="fill:#373435;fill-rule:nonzero;"/><path id="Shape10" serif:id="Shape" d="M1031.22,1923.55l-49.44,-25.614l-63.581,122.661l30.477,15.825l16.187,-31.211l16.411,8.474c33.561,17.431 63.744,10.418 78.615,-18.258c14.287,-27.617 3.26,-55.321 -28.669,-71.877m-1.835,56.042c-6.254,12.077 -18.935,15.338 -32.474,8.329l-18.228,-9.442l19.644,-37.885l18.232,9.446c13.535,7.009 18.523,18.549 12.826,29.552" style="fill:#373435;fill-rule:nonzero;"/><path id="Shape11" serif:id="Shape" d="M1169.98,2053.07c-5.471,20.406 -20.369,30.485 -37.845,25.809c-17.48,-4.721 -25.102,-20.89 -19.617,-41.295l19.327,-71.771l-33.35,-9.011l-19.156,71.243c-11.154,41.383 6.4,71.578 44.474,81.851c38.237,10.277 68.565,-7.057 79.689,-48.449l19.16,-71.194l-33.35,-9.006l-19.332,71.823Z" style="fill:#373435;fill-rule:nonzero;"/><path id="Shape12" serif:id="Shape" d="M1232.88,2128.4l34.151,3.506l14.216,-137.461l-34.16,-3.507l-14.207,137.462Z" style="fill:#373435;fill-rule:nonzero;"/><path id="Shape13" serif:id="Shape" d="M1383.49,2051.42l-19.468,-3.555c-10.446,-1.804 -16.063,-4.773 -16.406,-12.323c-0.387,-8.909 7.301,-14.118 19.063,-14.651c13.996,-0.638 20.805,6.177 23.093,16.455l34.519,-1.558c-5.111,-37.005 -38.768,-44.216 -61.117,-43.239c-32.475,1.461 -54.019,19.917 -52.774,47.525c0.972,21.91 14.339,34.136 41.795,38.809l22.96,4.043c11.867,1.703 14.938,6.476 15.131,11.149c0.343,7.496 -6.136,12.464 -18.936,13.049c-16.235,0.73 -27.121,-6.138 -29.897,-18.21l-34.295,1.557c4.768,33.943 33.447,47.283 64.487,45.923c34.511,-1.557 56.473,-19.82 55.224,-47.427c-1.069,-23.767 -17.964,-33.165 -43.379,-37.547" style="fill:#373435;fill-rule:nonzero;"/><path id="Shape14" serif:id="Shape" d="M1577.52,2067.24l10.737,-27.071c11.287,-28.585 16.064,-41.924 11.727,-55.075c-7.201,-21.765 -31.08,-34.427 -61.338,-24.396c-29.915,9.886 -40.229,33.644 -32.197,59.848l31.058,-10.277c-2.287,-10.128 1.513,-18.016 10.754,-21.083c10.42,-3.458 16.504,1.997 18.575,8.179c2.679,8.082 -2.164,17.431 -9.228,34.959l-23.902,61.599l5.112,15.439l93.35,-30.877l-8.731,-26.442l-45.917,15.197Z" style="fill:#373435;fill-rule:nonzero;"/><path id="Shape15" serif:id="Shape" d="M1660.4,1906.56c-34.546,19.772 -40.704,58.141 -19.912,94.469c20.792,36.376 56.983,50.543 91.543,30.775c34.555,-19.82 40.506,-58.044 19.71,-94.42c-20.757,-36.323 -56.777,-50.596 -91.341,-30.824m56.619,99.383c-17.99,10.322 -36.416,-0.246 -48.314,-21.034c-11.885,-20.797 -11.639,-42.025 6.373,-52.298c17.793,-10.225 36.218,0.29 48.125,21.131c11.867,20.797 11.63,42.029 -6.184,52.201" style="fill:#373435;fill-rule:nonzero;"/><path id="Shape16" serif:id="Shape" d="M1767.73,1829.96c-29.963,26.248 -28.384,65.106 -0.805,96.607c27.557,31.506 65.837,38.224 95.8,12.028c29.963,-26.248 28.239,-64.96 0.687,-96.466c-27.579,-31.496 -65.719,-38.364 -95.682,-12.169m75.162,86.237c-15.575,13.683 -35.703,7.013 -51.529,-11.052c-15.773,-18.065 -19.714,-38.91 -4.117,-52.54c15.457,-13.538 35.584,-6.868 51.384,11.201c15.773,18.061 19.714,38.906 4.262,52.391" style="fill:#373435;fill-rule:nonzero;"/><path id="Shape17" serif:id="Shape" d="M1901.42,1714.22l-15.214,-11.883l-62.068,79.417l24.174,18.892l36.288,-46.398l54.749,104.447l23.026,-29.464l-60.955,-115.011Z" style="fill:#373435;fill-rule:nonzero;"/><path id="Shape18" serif:id="Shape" d="M2594.44,1058.21l-159.655,0c-49.07,-197.987 -151.081,-379.612 -299,-527.545c-214.329,-214.402 -499.315,-332.479 -802.455,-332.479c-303.122,0 -588.1,118.077 -802.45,332.479c-147.919,147.933 -249.953,329.558 -299.001,527.545l-159.632,0c-20.832,0 -37.696,16.85 -37.696,37.696l0,475.101c0,0.198 0.018,0.44 0.018,0.638c0.052,1.606 0.198,3.164 0.435,4.721c0.053,0.392 0.106,0.682 0.172,1.069c0.268,1.659 0.69,3.313 1.223,4.919c0.092,0.339 0.215,0.633 0.316,0.924c0.532,1.513 1.144,2.974 1.874,4.435c0.092,0.145 0.172,0.338 0.264,0.532c0.783,1.513 1.702,2.974 2.727,4.382c0.22,0.29 0.435,0.638 0.686,0.928c1.021,1.364 2.085,2.675 3.308,3.894c0.048,0 0.075,0.053 0.119,0.053c0.118,0.145 0.25,0.242 0.369,0.339c1.21,1.17 2.507,2.292 3.866,3.26c0.172,0.096 0.317,0.29 0.489,0.391l226.569,160.837c2.072,1.461 4.28,2.631 6.545,3.603c56.297,136.732 139.646,262.363 247.353,370.07c214.35,214.398 499.328,332.479 802.45,332.479c303.14,0 588.127,-118.081 802.455,-332.479c107.703,-107.707 191.056,-233.338 247.375,-370.07c2.243,-0.976 4.434,-2.142 6.514,-3.603l226.574,-160.837c0.141,-0.097 0.268,-0.246 0.413,-0.339c1.39,-1.02 2.723,-2.142 3.968,-3.312c0.092,-0.097 0.242,-0.194 0.339,-0.291c1.24,-1.267 2.357,-2.582 3.404,-3.99c0.251,-0.291 0.44,-0.585 0.66,-0.876c1.02,-1.412 1.94,-2.873 2.749,-4.435c0.092,-0.145 0.172,-0.338 0.268,-0.532c0.757,-1.461 1.408,-3.066 1.975,-4.628c0.044,-0.194 0.119,-0.392 0.189,-0.537c0.541,-1.654 0.981,-3.361 1.289,-5.112c0.053,-0.339 0.097,-0.678 0.128,-1.021c0.242,-1.558 0.387,-3.115 0.44,-4.721c0,-0.246 0.017,-0.484 0.017,-0.682c0,-0.092 0.027,-0.193 0.027,-0.242l0,-474.868c0,-20.846 -16.886,-37.696 -37.678,-37.696Zm-2378.5,474.815l-106.01,0l0,-399.432l106.01,0c-11.52,65.299 -17.458,132.059 -17.458,199.738c0,67.688 5.938,134.448 17.458,199.694Zm1117.39,-1263.94c491.592,0 906.318,335.207 1027.85,789.129l-203.073,0c-0.145,-0.167 -0.272,-0.313 -0.413,-0.458l-481.95,-482.193c0.018,0.052 0.071,0.096 0.093,0.123c-27.109,-23.569 -54.96,-46.139 -84.316,-66.272c-14.604,-10.154 -29.62,-19.648 -45.129,-27.977c-15.457,-8.276 -31.428,-15.676 -47.8,-20.058c-16.261,-4.333 -33.305,-5.697 -46.743,0.414c-13.583,5.939 -23.145,19.499 -31.546,34.594c-4.329,7.55 -8.472,15.557 -13.385,23.644c-4.94,8.033 -10.61,16.432 -19.182,23.445c-4.254,3.454 -9.268,6.428 -14.753,8.329c-5.551,1.896 -11.023,2.723 -16.917,2.675c-1.821,0.026 -5.74,-0.291 -8.348,-0.779c-2.895,-0.537 -5.815,-1.364 -8.617,-2.583c-5.67,-2.433 -10.68,-6.379 -14.476,-10.761c-7.499,-8.958 -10.939,-18.699 -13.833,-27.705c-2.798,-9.107 -4.817,-17.946 -7.078,-26.345c-4.407,-16.7 -10.345,-32.526 -21.957,-38.127c-1.46,-0.73 -2.991,-1.364 -4.623,-1.847c-0.757,-0.198 -1.777,-0.489 -2.336,-0.586l-1.583,-0.29l-0.928,-0.101c-3.04,-0.291 -6.229,0.026 -9.369,1.069c-6.352,2.024 -12.708,6.819 -18.5,12.618c-11.758,11.685 -21.465,26.587 -33.003,41.092c-2.973,3.657 -6.043,7.282 -9.813,10.766c-3.77,3.335 -8.177,7.251 -15.43,8.421c-3.633,0.489 -7.526,-0.145 -10.763,-1.9c-3.576,-1.826 -6.013,-5.012 -7.372,-7.744c-2.679,-5.596 -3.185,-10.515 -3.796,-15.236c-1.021,-9.278 -1.047,-18.262 -3.119,-25.663c-1.047,-3.7 -2.679,-6.282 -4.698,-7.255c-0.558,-0.246 -1.143,-0.488 -1.847,-0.611c-0.026,-0.022 -0.972,-0.119 -1.394,-0.216l-1.21,-0.048c-1.729,-0.053 -3.796,0.048 -5.815,0.339c-8.207,1.144 -16.609,3.942 -24.733,7.184c-8.128,3.287 -16.094,7.18 -23.884,11.439c-15.5,8.645 -30.275,18.822 -43.713,30.754l-547.162,547.391c-0.146,0.145 -0.269,0.291 -0.414,0.458l-200.759,0c121.55,-453.922 536.276,-789.129 1027.84,-789.129Zm426.401,789.129c0.22,-0.194 0.422,-0.387 0.611,-0.585l-99.94,-98.895c-28.559,30.674 -57.3,61.111 -86.22,91.424l7.957,8.056l-51.133,0c1.117,-1.069 2.208,-2.138 3.338,-3.212l-92.624,-93.685c-29.233,30.674 -58.884,60.939 -88.411,91.344l5.599,5.553l-53.504,0l5.643,-5.597c-29.501,-30.388 -59.125,-60.648 -88.332,-91.3l-92.712,93.733c1.099,1.026 2.19,2.095 3.29,3.164l-51.05,0l7.984,-8.082c-28.921,-30.309 -57.692,-60.768 -86.238,-91.446l-99.988,98.943c0.189,0.198 0.36,0.391 0.585,0.585l-43.19,0c3.506,-3.652 7.038,-7.251 10.57,-10.858c-32.25,-34.911 -64.193,-70.069 -95.638,-105.714c35.611,31.408 70.733,63.35 105.592,95.537l100.551,-101.719c-32.03,-34.669 -63.748,-69.633 -95,-105.058c35.439,31.263 70.342,63.011 105.007,95.023l101.672,-100.598c-32.18,-34.867 -64.096,-69.971 -95.514,-105.617c35.654,31.457 70.807,63.403 105.688,95.635c34.225,-33.16 68.151,-66.562 102.719,-99.383c-32.764,-35.453 -65.239,-71.191 -97.194,-107.417c36.314,32.038 72.118,64.586 107.659,97.434c34.348,-32.848 68.907,-65.515 103.744,-97.874c-28.652,-30.969 -57.01,-62.228 -85.077,-93.782c0.585,-0.638 1.117,-1.267 1.685,-1.927c31.709,28.241 63.163,56.755 94.296,85.577c4.596,-4.255 9.268,-8.47 13.899,-12.706c4.826,0.585 9.594,0.73 14.045,0.536c1.236,-0.048 2.525,-0.246 3.769,-0.339c-6.914,7.546 -13.807,15.14 -20.765,22.689c34.828,32.355 69.352,65.005 103.691,97.826c35.541,-32.865 71.367,-65.422 107.73,-97.487c-31.96,36.279 -64.43,72.07 -97.191,107.518c34.538,32.795 68.468,66.175 102.645,99.335c34.881,-32.232 70.051,-64.178 105.711,-95.635c-31.402,35.646 -63.309,70.799 -95.489,105.666l101.646,100.549c34.666,-32.038 69.594,-63.76 105.034,-94.997c-31.23,35.448 -62.953,70.363 -94.956,105.058l100.551,101.645c34.832,-32.183 69.932,-64.081 105.565,-95.489c-31.423,35.645 -63.353,70.803 -95.563,105.714c3.506,3.607 7.042,7.206 10.539,10.858l-43.286,0Zm589.595,591.097c-134.877,433.037 -539.28,748.279 -1016,748.279c-476.693,0 -881.118,-315.242 -1016.01,-748.279l-10.077,-40.85l2052.18,0l-10.095,40.85Zm29.11,-116.282l-2090.21,0c-12.346,-64.714 -18.865,-131.473 -18.865,-199.694c0,-68.264 6.519,-135.024 18.865,-199.738l2090.21,0c12.342,64.714 18.865,131.474 18.865,199.738c0,68.221 -6.527,134.98 -18.865,199.694Zm178.295,0l-105.979,0c11.507,-65.246 17.432,-132.006 17.432,-199.694c0,-67.679 -5.925,-134.439 -17.432,-199.738l105.979,0l0,399.432Z" style="fill:#373435;fill-rule:nonzero;"/><path id="Shape19" serif:id="Shape" d="M1240.5,943.151c30.79,29.363 61.166,59.135 91.666,88.767c30.548,-29.654 60.902,-59.457 91.718,-88.82c-30.6,-31.527 -61.364,-62.91 -91.666,-94.754c-30.31,31.87 -61.126,63.253 -91.718,94.807" style="fill:#373435;fill-rule:nonzero;"/><path id="Shape20" serif:id="Shape" d="M1224.14,733.91c-32.33,34.061 -65.24,67.542 -97.903,101.235c31.106,28.976 61.993,58.189 92.739,87.499c31.889,-30.916 63.554,-62.03 95.73,-92.66c-30.377,-31.84 -60.586,-63.834 -90.566,-96.074" style="fill:#373435;fill-rule:nonzero;"/><path id="Shape21" serif:id="Shape" d="M1015.74,946.996c30.671,28.532 61.091,57.31 91.397,86.237l94.758,-93.808c-29.259,-30.653 -58.347,-61.45 -87.214,-92.467l-98.941,100.038Z" style="fill:#373435;fill-rule:nonzero;"/><path id="Shape22" serif:id="Shape" d="M1428.97,722.004c-32.475,-33.965 -64.751,-68.145 -96.751,-102.568c-32.008,34.449 -64.311,68.656 -96.786,102.643c32.448,30.19 64.672,60.675 96.733,91.301c32.057,-30.679 64.316,-61.155 96.804,-91.376" style="fill:#373435;fill-rule:nonzero;"/><path id="Shape23" serif:id="Shape" d="M1462.51,939.499l94.714,93.686c30.31,-28.923 60.753,-57.701 91.424,-86.237l-98.875,-100.017c-28.89,31.066 -58,61.89 -87.263,92.568" style="fill:#373435;fill-rule:nonzero;"/><path id="Shape24" serif:id="Shape" d="M1440.31,733.91c-30.007,32.262 -60.264,64.274 -90.641,96.122c32.132,30.631 63.823,61.696 95.66,92.612c30.763,-29.358 61.681,-58.576 92.818,-87.548c-32.646,-33.696 -65.534,-67.151 -97.837,-101.186" style="fill:#373435;fill-rule:nonzero;"/></g><g id="Group1" serif:id="Group"><path id="Shape25" serif:id="Shape" d="M976.988,496.614l78.623,-78.928c-305.818,93.8 -547.131,337.167 -639.15,644.709l49.069,0c80.522,-254.618 269.07,-461.406 511.458,-565.781Z" style="fill:#e85735;fill-rule:nonzero;"/><path id="Shape26" serif:id="Shape" d="M1612.22,416.735l77.865,78.141c244.313,103.77 434.474,311.459 515.431,567.515l49.1,0c-92.332,-308.643 -335.033,-552.572 -642.396,-645.656Z" style="fill:#e85735;fill-rule:nonzero;"/></g><g id="Group2" serif:id="Group"><path id="Shape27" serif:id="Shape" d="M1335.54,1892.86c210.997,0 395.237,-114.793 491.96,-284.23l-54.526,0c-91.702,142.927 -253.463,238.075 -437.434,238.075c-183.967,0 -345.711,-95.153 -437.386,-238.075l-54.553,0c96.706,169.437 280.964,284.23 491.939,284.23Z" style="fill:#e85735;fill-rule:nonzero;"/><path id="Shape28" serif:id="Shape" d="M2205.59,1608.63c-117.062,363.522 -462.794,627.686 -870.057,627.686c-407.268,0 -752.996,-264.164 -870.084,-627.686l-49.073,0c118.661,389.355 485.798,673.837 919.157,673.837c433.355,0 800.491,-284.486 919.157,-673.837l-49.1,0Z" style="fill:#e85735;fill-rule:nonzero;"/></g></g></svg>